<?xml version="1.0" encoding="utf-8"?>
<!-- Generator: Adobe Illustrator 24.1.2, SVG Export Plug-In . SVG Version: 6.00 Build 0)  -->
<svg version="1.1" id="Layer_1" xmlns="http://www.w3.org/2000/svg" xmlns:xlink="http://www.w3.org/1999/xlink" x="0px" y="0px"
	 viewBox="0 0 1000 1000" style="enable-background:new 0 0 1000 1000;" xml:space="preserve">
<style type="text/css">
	.st0{fill:#FFFFFF;}
</style>
<path d="M555.93,500c0,30.9-25.04,55.94-55.93,55.94S444.07,530.9,444.07,500c0-30.89,25.04-55.93,55.93-55.93
	S555.93,469.11,555.93,500z"/>
<path d="M717.49,485.43C682.17,395.45,596.62,335.18,500,332.21c-96.62,2.97-182.17,63.24-217.49,153.22L276.27,500l6.24,14.58
	C317.83,604.56,403.38,664.83,500,667.8c96.62-2.97,182.17-63.24,217.49-153.22l6.24-14.58L717.49,485.43z M500,611.87
	c-61.78,0-111.87-50.08-111.87-111.87c0-61.78,50.09-111.86,111.87-111.86c61.78,0,111.86,50.08,111.86,111.86
	C611.79,561.75,561.75,611.79,500,611.87z"/>
<path d="M849.69,280.08L514.09,84.32c-8.71-5.09-19.48-5.09-28.19,0L150.31,280.08c-8.59,5.01-13.87,14.21-13.87,24.16v391.53
	c0,9.95,5.28,19.15,13.87,24.16L485.9,915.69c8.71,5.09,19.48,5.09,28.19,0l335.6-195.76c8.59-5.01,13.87-14.21,13.87-24.16V304.24
	C863.56,294.29,858.28,285.09,849.69,280.08z M807.63,679.72L500,859.15L192.37,679.72V320.29L500,140.86l307.63,179.43V679.72z"/>
<path class="st0" d="M500,140.86L192.37,320.29v359.43L500,859.15l307.63-179.43V320.29L500,140.86z M717.49,514.58
	C682.17,604.56,596.62,664.83,500,667.8c-96.62-2.97-182.17-63.24-217.49-153.22L276.27,500l6.24-14.57
	C317.83,395.45,403.38,335.18,500,332.21c96.62,2.97,182.17,63.24,217.49,153.22l6.24,14.57L717.49,514.58z"/>
<path class="st0" d="M500,388.14c-61.78,0-111.87,50.08-111.87,111.86c0,61.79,50.09,111.87,111.87,111.87
	c61.75-0.08,111.79-50.12,111.86-111.87C611.86,438.22,561.78,388.14,500,388.14z M500,555.94c-30.89,0-55.93-25.04-55.93-55.94
	c0-30.89,25.04-55.93,55.93-55.93s55.93,25.04,55.93,55.93C555.93,530.9,530.89,555.94,500,555.94z"/>
</svg>
